<svg id="Layer_1" data-name="Layer 1" xmlns="http://www.w3.org/2000/svg" viewBox="0 0 155.654 200.743">
  <defs>
    <style>
      .cls-1 {
        fill: none;
        stroke: #6f6f6f;
        stroke-miterlimit: 10;
        stroke-width: 1.318px;
        opacity: 0.25;
      }

      .cls-2 {
        fill: #aeb0b3;
      }

      .cls-3 {
        fill: #fff;
      }
    </style>
  </defs>
  <title>TPGlogoBW</title>
  <g>
    <path class="cls-1" d="M180.062,60.723l2.468-2.091c1.252-1.057,2.178-2.865,1.877-3.977a11.546,11.546,0,0,0-3.616-6.245c-.819-.811-2.847-.908-4.386-.349q-5.022,1.812-10.03,3.636c-1.36.49-4.045-1.777-4.045-1.777l-.014.005c-.289-.35-.583-.694-.877-1.039l.006-.013s-1.774-3.035-1.06-4.289q2.647-4.639,5.291-9.267c.816-1.422,1.068-3.437.408-4.381a11.6,11.6,0,0,0-5.538-4.634c-1.044-.48-2.983.127-4.243,1.177q-4.091,3.42-8.177,6.847c-1.111.926-4.41-.282-4.41-.282l-.01.006c-.392-.228-.782-.457-1.178-.679v-.013s-2.706-2.243-2.462-3.667q.908-5.257,1.8-10.514c.275-1.616-.174-3.6-1.117-4.261a11.566,11.566,0,0,0-6.79-2.452c-1.146-.1-2.762,1.135-3.585,2.553q-2.674,4.611-5.344,9.226c-.728,1.256-4.238,1.247-4.238,1.247a.137.137,0,0,0-.015.022c-.447-.082-.89-.18-1.337-.255l0,0s-3.309-1.183-3.567-2.608q-.952-5.242-1.9-10.494c-.291-1.611-1.39-3.317-2.5-3.618a11.541,11.541,0,0,0-7.22.011c-1.111.3-2.2,2.016-2.49,3.627q-.94,5.248-1.867,10.5c-.253,1.42-3.56,2.616-3.56,2.616-.449.073-.9.157-1.348.244,0,0-3.516.017-4.246-1.232q-2.681-4.6-5.376-9.212c-.825-1.417-2.444-2.643-3.592-2.544a11.617,11.617,0,0,0-6.778,2.481c-.942.665-1.387,2.648-1.106,4.264q.913,5.253,1.84,10.5c.247,1.424-2.451,3.681-2.447,3.678a.082.082,0,0,0,0,.02c-.2.112-.4.211-.6.326s-.38.236-.575.352a.065.065,0,0,1-.017-.015s-3.3,1.223-4.412.3q-4.1-3.413-8.2-6.82c-1.259-1.051-3.2-1.645-4.246-1.165a11.639,11.639,0,0,0-5.523,4.653c-.655.949-.4,2.963.423,4.383q2.652,4.626,5.32,9.246c.72,1.254-1.044,4.293-1.042,4.29v0c-.3.35-.595.7-.886,1.051,0,0-2.677,2.275-4.039,1.79q-5.022-1.8-10.041-3.6c-1.543-.554-3.573-.455-4.388.358a11.6,11.6,0,0,0-3.6,6.26c-.29,1.115.642,2.917,1.894,3.97q1.1.929,2.2,1.854" transform="translate(-30.175 -7.299)"/>
    <path class="cls-1" d="M50.915,60.723a66.463,66.463,0,0,1,114.169,0" transform="translate(-30.175 -7.299)"/>
    <path class="cls-1" d="M34.681,129.864l-1.215,1.029c-1.25,1.059-2.178,2.868-1.881,3.98a11.6,11.6,0,0,0,3.62,6.246c.817.811,2.849.9,4.389.346q5.014-1.808,10.027-3.631c1.36-.5,4.046,1.769,4.046,1.769h.01c.288.352.584.7.879,1.04l0,.01s1.774,3.035,1.056,4.29q-2.643,4.631-5.29,9.262c-.814,1.422-1.069,3.439-.409,4.386a11.611,11.611,0,0,0,5.538,4.631c1.05.48,2.985-.127,4.244-1.177q4.093-3.42,8.179-6.846c1.109-.924,4.407.282,4.41.282l.007-.006c.393.23.785.46,1.181.682v.007s2.7,2.244,2.461,3.672q-.9,5.252-1.8,10.511c-.278,1.616.172,3.6,1.117,4.261a11.614,11.614,0,0,0,6.786,2.459c1.15.094,2.766-1.142,3.586-2.56q2.681-4.61,5.348-9.228c.724-1.25,4.236-1.244,4.236-1.244s.008-.012.014-.018c.448.082.891.18,1.341.252v.007s3.309,1.18,3.568,2.6q.945,5.251,1.9,10.5c.289,1.617,1.389,3.323,2.507,3.622a11.57,11.57,0,0,0,7.216-.012c1.113-.3,2.209-2.015,2.5-3.63q.94-5.249,1.867-10.5c.248-1.4,3.409-2.561,3.538-2.611.459-.076.919-.161,1.378-.247.058,0,3.512-.007,4.233,1.23q2.688,4.6,5.378,9.209c.825,1.42,2.44,2.646,3.592,2.548a11.572,11.572,0,0,0,6.78-2.481c.941-.665,1.387-2.644,1.1-4.261q-.915-5.258-1.837-10.509c-.246-1.423,2.447-3.675,2.447-3.675v-.02c.2-.112.4-.214.6-.326s.381-.239.575-.354a.2.2,0,0,1,.018.014s3.293-1.22,4.406-.3q4.1,3.411,8.206,6.819c1.256,1.049,3.2,1.646,4.244,1.16a11.586,11.586,0,0,0,5.525-4.649c.655-.947.395-2.96-.425-4.383q-2.651-4.626-5.316-9.246c-.721-1.253,1.044-4.292,1.041-4.29.3-.353.6-.707.892-1.064.052-.043,2.685-2.258,4.032-1.777q5.017,1.8,10.041,3.6c1.54.553,3.568.451,4.388-.36a11.625,11.625,0,0,0,3.6-6.256c.29-1.115-.641-2.92-1.9-3.977l-.936-.788" transform="translate(-30.175 -7.299)"/>
    <path class="cls-1" d="M164.442,129.864a66.451,66.451,0,0,1-112.861,0" transform="translate(-30.175 -7.299)"/>
  </g>
  <g>
    <path class="cls-2" d="M31.273,205.295V193.576h.659v11.06h4.541v.659Z" transform="translate(-30.175 -7.299)"/>
    <path class="cls-2" d="M39.037,193.576v11.719h-.659V193.576Z" transform="translate(-30.175 -7.299)"/>
    <path class="cls-2" d="M42.135,193.576l4.4,7.617,4.395-7.617h.754l-.029.051v11.668H51V194.77l-4.46,7.721-4.468-7.721v10.525H41.41V193.627l-.029-.051Z" transform="translate(-30.175 -7.299)"/>
    <path class="cls-2" d="M54.689,193.576v11.719H54.03V193.576Z" transform="translate(-30.175 -7.299)"/>
    <path class="cls-2" d="M59.926,194.235v11.06h-.659v-11.06H56.3v-.659h6.592v.659Z" transform="translate(-30.175 -7.299)"/>
    <path class="cls-2" d="M64.357,205.295V193.576h.659v11.06h4.541v.659Z" transform="translate(-30.175 -7.299)"/>
    <path class="cls-2" d="M77.174,193.576v.659h-5.2v4.87h5.2v.66h-5.2v4.87h5.2v.659H71.315V193.576Z" transform="translate(-30.175 -7.299)"/>
    <path class="cls-2" d="M82.1,198.806a4.965,4.965,0,0,1-1.978-1.143,2.481,2.481,0,0,1,3.516-3.5,2.078,2.078,0,0,1,.557.871l-.593.234a1.821,1.821,0,0,0-.432-.658,1.825,1.825,0,0,0-2.578,2.585,4.907,4.907,0,0,0,1.377.9,5.807,5.807,0,0,1,2.366,1.413,3.467,3.467,0,1,1-5.881,3.011l.623-.228a2.826,2.826,0,1,0,4.8-2.329A5.348,5.348,0,0,0,82.1,198.806Z" transform="translate(-30.175 -7.299)"/>
    <path class="cls-2" d="M89.735,198.806a4.965,4.965,0,0,1-1.978-1.143,2.481,2.481,0,0,1,3.516-3.5,2.078,2.078,0,0,1,.557.871l-.593.234a1.821,1.821,0,0,0-.432-.658,1.825,1.825,0,0,0-2.578,2.585,4.907,4.907,0,0,0,1.377.9,5.807,5.807,0,0,1,2.366,1.413,3.467,3.467,0,1,1-5.881,3.011l.623-.228a2.826,2.826,0,1,0,4.8-2.329A5.348,5.348,0,0,0,89.735,198.806Z" transform="translate(-30.175 -7.299)"/>
    <path class="cls-2" d="M100.3,201.23v4.064h-.659V193.576h3.076a3.877,3.877,0,0,1,2.278,1.121,3.827,3.827,0,0,1-2.7,6.533Zm0-6.988v6.321h1.992a3.161,3.161,0,0,0,0-6.321Z" transform="translate(-30.175 -7.299)"/>
    <path class="cls-2" d="M117.7,195.169a6.014,6.014,0,1,1-4.252-1.761A5.8,5.8,0,0,1,117.7,195.169Zm-4.252-1.087a5.34,5.34,0,1,0,3.775,1.563A5.143,5.143,0,0,0,113.443,194.082Z" transform="translate(-30.175 -7.299)"/>
    <path class="cls-2" d="M124.387,198.806a4.965,4.965,0,0,1-1.978-1.143,2.481,2.481,0,0,1,3.516-3.5,2.078,2.078,0,0,1,.557.871l-.593.234a1.822,1.822,0,0,0-.433-.658,1.825,1.825,0,0,0-2.578,2.585,4.907,4.907,0,0,0,1.377.9,5.815,5.815,0,0,1,2.366,1.413,3.468,3.468,0,1,1-5.882,3.011l.622-.228a2.826,2.826,0,1,0,4.8-2.329A5.336,5.336,0,0,0,124.387,198.806Z" transform="translate(-30.175 -7.299)"/>
    <path class="cls-2" d="M132.018,198.806a4.965,4.965,0,0,1-1.978-1.143,2.481,2.481,0,0,1,3.516-3.5,2.078,2.078,0,0,1,.557.871l-.593.234a1.822,1.822,0,0,0-.433-.658,1.825,1.825,0,0,0-2.578,2.585,4.907,4.907,0,0,0,1.377.9,5.815,5.815,0,0,1,2.366,1.413,3.468,3.468,0,1,1-5.882,3.011l.622-.228a2.826,2.826,0,1,0,4.8-2.329A5.336,5.336,0,0,0,132.018,198.806Z" transform="translate(-30.175 -7.299)"/>
    <path class="cls-2" d="M137.541,193.576v11.719h-.659V193.576Z" transform="translate(-30.175 -7.299)"/>
    <path class="cls-2" d="M141.964,193.576a2.181,2.181,0,0,1,2.183,2.176,2.226,2.226,0,0,1-.93,1.691,2.905,2.905,0,0,1,1.545.967,3.9,3.9,0,0,1,1.172,2.85,4.007,4.007,0,0,1-1.172,2.878,3.575,3.575,0,0,1-2.607,1.149v.008h-2.271V193.576Zm-1.421.659v3h1.59a1.548,1.548,0,0,0,.938-.41,1.384,1.384,0,0,0,.446-1.068,1.445,1.445,0,0,0-.446-1.088,1.537,1.537,0,0,0-1.106-.429Zm0,3.7v6.7h1.611v.007a3.121,3.121,0,0,0,2.109-1,3.3,3.3,0,0,0,.975-2.38,3.328,3.328,0,0,0-3.326-3.326Z" transform="translate(-30.175 -7.299)"/>
    <path class="cls-2" d="M148.5,193.576v11.719h-.659V193.576Z" transform="translate(-30.175 -7.299)"/>
    <path class="cls-2" d="M150.841,205.295V193.576h.659v11.06h4.541v.659Z" transform="translate(-30.175 -7.299)"/>
    <path class="cls-2" d="M158.605,193.576v11.719h-.659V193.576Z" transform="translate(-30.175 -7.299)"/>
    <path class="cls-2" d="M163.842,194.235v11.06h-.66v-11.06h-2.966v-.659h6.592v.659Z" transform="translate(-30.175 -7.299)"/>
    <path class="cls-2" d="M169.078,193.576v11.719h-.659V193.576Z" transform="translate(-30.175 -7.299)"/>
    <path class="cls-2" d="M177.282,193.576v.659h-5.2v4.87h5.2v.66h-5.2v4.87h5.2v.659h-5.859V193.576Z" transform="translate(-30.175 -7.299)"/>
    <path class="cls-2" d="M182.211,198.806a4.965,4.965,0,0,1-1.978-1.143,2.481,2.481,0,0,1,3.516-3.5,2.078,2.078,0,0,1,.557.871l-.593.234a1.822,1.822,0,0,0-.433-.658,1.825,1.825,0,0,0-2.578,2.585,4.907,4.907,0,0,0,1.377.9,5.815,5.815,0,0,1,2.366,1.413,3.468,3.468,0,1,1-5.882,3.011l.622-.228a2.826,2.826,0,1,0,4.8-2.329A5.336,5.336,0,0,0,182.211,198.806Z" transform="translate(-30.175 -7.299)"/>
  </g>
  <g>
    <path class="cls-2" d="M95.516,46.69V64.353H94.463V46.69H89.726V45.637h10.527V46.69Z" transform="translate(-30.175 -7.299)"/>
    <path class="cls-2" d="M103.645,55.966v8.387h-1.053V45.637h1.053v9.276h7.837V45.637h1.053V64.353h-1.053V55.966Z" transform="translate(-30.175 -7.299)"/>
    <path class="cls-2" d="M125.4,45.637V46.69h-8.3v7.779h8.3v1.053h-8.3V63.3h8.3v1.053h-9.357V45.637Z" transform="translate(-30.175 -7.299)"/>
  </g>
  <g>
    <path class="cls-3" d="M38.017,99.118v10.54H33.756V76.72H43.1a11.372,11.372,0,0,1,6.711,3.273,11.2,11.2,0,0,1-7.9,19.125Zm0-18.116V94.836h3.891a6.917,6.917,0,0,0,0-13.834Z" transform="translate(-30.175 -7.299)"/>
    <path class="cls-3" d="M66.858,76.72,78.84,109.658H74.311L70.07,98.006H61.341l-4.22,11.652h-4.55L64.553,76.72Zm1.668,17.025-2.821-7.72-2.8,7.72Z" transform="translate(-30.175 -7.299)"/>
    <path class="cls-3" d="M91.109,99.118H87.218v10.54H82.957V76.72H92.3a11.372,11.372,0,0,1,6.711,3.273,11.231,11.231,0,0,1,0,15.851A9.269,9.269,0,0,1,95.556,98.4l7.308,11.261H97.7ZM87.218,81V94.836h3.891a6.917,6.917,0,0,0,0-13.834Z" transform="translate(-30.175 -7.299)"/>
    <path class="cls-3" d="M119.292,76.72l11.98,32.938h-4.528L122.5,98.006h-8.729l-4.22,11.652H105L116.986,76.72Zm1.667,17.025-2.82-7.72-2.8,7.72Z" transform="translate(-30.175 -7.299)"/>
    <path class="cls-3" d="M138.519,76.72q8.029.042,12.517,4.55a16.9,16.9,0,0,1,0,23.839q-4.488,4.508-12.517,4.549H135.39V76.72Zm1.133,4.344v24.271a11.249,11.249,0,0,0,8.337-3.273,12.575,12.575,0,0,0,0-17.746A11.288,11.288,0,0,0,139.651,81.064Z" transform="translate(-30.175 -7.299)"/>
    <path class="cls-3" d="M172.322,76.72l11.98,32.938h-4.528l-4.241-11.652H166.8l-4.22,11.652h-4.55L170.017,76.72Zm1.667,17.025-2.82-7.72-2.8,7.72Z" transform="translate(-30.175 -7.299)"/>
  </g>
  <g>
    <path class="cls-2" d="M84.274,140a8.9,8.9,0,0,1-6.375,2.551,9.58,9.58,0,1,1,6.445-16.669l-.8.726a8.507,8.507,0,1,0-.328,13.019v-5.708h1.053Z" transform="translate(-30.175 -7.299)"/>
    <path class="cls-2" d="M92.111,135.824c-.1.008-.207.012-.316.012H88.614v6.492H87.561V123.613h4.913a6.189,6.189,0,0,1,3.638,1.789,6.139,6.139,0,0,1-2.842,10.271l4.316,6.655h-1.3Zm-3.5-11.147v10.095H91.8a5.047,5.047,0,0,0,0-10.095Z" transform="translate(-30.175 -7.299)"/>
    <path class="cls-2" d="M116.4,126.157a9.6,9.6,0,1,1-6.79-2.813A9.25,9.25,0,0,1,116.4,126.157Zm-6.79-1.737a8.526,8.526,0,1,0,6.03,2.5A8.215,8.215,0,0,0,109.61,124.42Z" transform="translate(-30.175 -7.299)"/>
    <path class="cls-2" d="M133.59,123.613h1.063v13.451a6.187,6.187,0,0,1-1.789,3.638,6.111,6.111,0,0,1-10.434-4.316V123.613H123.5v12.772a5.047,5.047,0,0,0,10.095,0Z" transform="translate(-30.175 -7.299)"/>
    <path class="cls-2" d="M139.216,135.836v6.492h-1.053V123.613h4.912a6.185,6.185,0,0,1,3.638,1.789,6.111,6.111,0,0,1-4.315,10.434Zm0-11.159v10.095H142.4a5.047,5.047,0,0,0,0-10.095Z" transform="translate(-30.175 -7.299)"/>
  </g>
</svg>
